<svg width="30" height="30" viewBox="0 0 30 30" fill="none" xmlns="http://www.w3.org/2000/svg">
<path d="M6.42578 10.2645C7.32473 8.274 9.26963 7 11.4094 7H13.9324C14.3546 7 14.6344 7.44883 14.457 7.84155L9.08538 19.7355C8.18643 21.726 6.24153 23 4.1018 23H1.57876C1.15659 23 0.876811 22.5512 1.05418 22.1584L6.42578 10.2645Z" fill="black"/>
<path d="M16.1086 10.2645C17.0076 8.274 18.9525 7 21.0922 7H23.6152C24.0374 7 24.3172 7.44883 24.1398 7.84155L18.7682 19.7355C17.8693 21.726 15.9244 23 13.7846 23H11.2616C10.8394 23 10.5596 22.5512 10.737 22.1584L16.1086 10.2645Z" fill="black"/>
<path d="M21.774 19.2963C21.774 17.2508 23.3916 15.5926 25.387 15.5926C27.3824 15.5926 29 17.2508 29 19.2963C29 21.3418 27.3824 23 25.387 23C23.3916 23 21.774 21.3418 21.774 19.2963Z" fill="black"/>
</svg>
