<svg width="30" height="30" viewBox="0 0 30 30" fill="none" xmlns="http://www.w3.org/2000/svg">
<path d="M2.24109 1.47319C2.24109 1.10323 2.64691 0.87667 2.96184 1.07082L5.78511 2.81137C6.48316 3.24172 6.90825 4.00316 6.90825 4.82321V20.5145C6.90825 20.9102 6.52686 21.1941 6.1478 21.0805L2.66236 20.0362C2.41234 19.9613 2.24109 19.7312 2.24109 19.4702V1.47319Z" fill="black"/>
<path d="M9.30043 24.0955C9.26243 23.6708 9.6322 23.3227 10.0538 23.3862L13.2627 23.8694C13.6105 23.9218 13.8495 24.2467 13.7959 24.5942L13.3661 27.384C13.2228 28.3136 12.4229 28.9998 11.4823 28.9998C10.4954 28.9998 9.67178 28.2465 9.58385 27.2636L9.30043 24.0955Z" fill="black"/>
<path d="M20.7523 9.74749C20.7523 9.37633 20.3442 9.14997 20.0293 9.34653L17.2554 11.0783C16.5638 11.5101 16.1436 12.2678 16.1436 13.0831V22.4679C16.1436 22.8368 16.478 23.1155 16.8409 23.0491L20.2679 22.4215C20.5485 22.3701 20.7523 22.1256 20.7523 21.8403V9.74749Z" fill="black"/>
<path d="M9.25502 9.74749C9.25502 9.37633 9.6632 9.14997 9.97804 9.34653L12.7519 11.0783C13.4435 11.5101 13.8637 12.2678 13.8637 13.0831V22.4679C13.8637 22.8368 13.5293 23.1155 13.1664 23.0491L9.73945 22.4215C9.45885 22.3701 9.25502 22.1256 9.25502 21.8403V9.74749Z" fill="black"/>
<path d="M20.6787 24.0953C20.7162 23.6708 20.3461 23.3234 19.9249 23.3877L16.7704 23.8687C16.4242 23.9215 16.1863 24.2449 16.239 24.5911L16.6669 27.4031C16.8066 28.3213 17.596 28.9998 18.5248 28.9998C19.4986 28.9998 20.3111 28.2559 20.3968 27.2858L20.6787 24.0953Z" fill="black"/>
<path d="M2.44734 22.1382C2.40782 21.6908 2.82598 21.3408 3.25942 21.4585L6.43416 22.3208C6.72039 22.3986 6.90169 22.6799 6.8542 22.9727L6.46567 25.3681C6.31737 26.2823 5.52788 26.9541 4.60167 26.9541C3.62317 26.9541 2.80675 26.2066 2.72065 25.2319L2.44734 22.1382Z" fill="black"/>
<path d="M27.7589 1.47336C27.7589 1.10341 27.3531 0.876855 27.0381 1.07098L24.2143 2.81162C23.5162 3.24196 23.0911 4.00344 23.0911 4.82354V20.5148C23.0911 20.9105 23.4724 21.1943 23.8515 21.0808L27.3376 20.0364C27.5876 19.9615 27.7589 19.7314 27.7589 19.4704V1.47336Z" fill="black"/>
<path d="M27.5882 22.1366C27.6286 21.6892 27.2118 21.3379 26.7777 21.4534L23.5134 22.3218C23.2242 22.3987 23.0408 22.6827 23.0897 22.978L23.4803 25.3368C23.6348 26.2697 24.4417 26.9539 25.3873 26.9539C26.3876 26.9539 27.2226 26.1908 27.3124 25.1946L27.5882 22.1366Z" fill="black"/>
</svg>
