<svg width="30" height="30" viewBox="0 0 30 30" fill="none" xmlns="http://www.w3.org/2000/svg">
<path fill-rule="evenodd" clip-rule="evenodd" d="M4.70643 10.2145C4.70643 9.99416 4.77009 9.99662 4.88821 10.0012C4.90638 10.0019 4.92583 10.0026 4.94654 10.0026H6.34483C6.49172 10.0026 6.50961 10.1062 6.5002 10.158V18.5619C6.5002 18.8726 6.18946 19.8896 4.91829 19.9461C3.90135 19.9913 3.49646 18.9009 3.42113 18.35C3.76952 18.3406 4.48891 18.3274 4.57931 18.35C4.6697 18.3726 4.70172 18.2935 4.70643 18.2512V10.2145ZM7.79962 12.658C7.79962 12.545 7.86553 12.4979 7.89849 12.4885H9.49452C9.59221 12.4885 9.61951 12.5754 9.62152 12.624C9.61213 12.1781 9.60201 11.6759 9.63576 13.1947C9.67813 15.1015 9.93237 16.7964 10.0171 16.9094C10.0849 16.9998 10.0454 17.1448 10.0171 17.206L9.09904 18.9997C9.0755 19.0421 8.94085 18.9517 8.59057 18.2512C8.24029 17.5506 8.05856 16.3491 8.01148 15.8359L7.79962 12.658ZM14.0001 10.0026C14.0708 10.0121 14.1809 10.0789 14.0566 10.271C13.9323 10.4631 13.2892 11.7352 12.9832 12.3473C12.9314 12.4226 12.8476 12.593 12.9267 12.6721C13.0256 12.771 13.1244 12.8275 13.2092 12.7286C13.277 12.6495 13.3033 12.6015 13.308 12.5874C13.3363 12.5638 13.4097 12.5168 13.4775 12.5168H14.9888C15.0359 12.5168 15.1159 12.5478 15.0594 12.6721C15.0029 12.7964 14.066 14.6071 13.6047 15.497C13.534 15.6335 13.4662 15.9066 13.76 15.9066H14.5227C14.5792 15.9066 14.6696 15.9489 14.5792 16.1184C14.4888 16.2879 14.1178 16.98 13.9436 17.3048C13.9342 17.3378 13.8843 17.4037 13.76 17.4037H11.7261C11.5284 17.3143 11.1922 16.9913 11.4295 16.415C11.6668 15.8388 12.0934 14.932 12.277 14.5506C12.3288 14.4753 12.39 14.3275 12.2205 14.3388C12.051 14.3501 11.4719 14.3435 11.2035 14.3388C10.9022 14.2493 10.3872 13.915 10.7374 13.2936C11.0877 12.6721 11.9192 10.9443 12.2911 10.158C12.3005 10.1062 12.342 10.0026 12.4323 10.0026H14.0001ZM13.7176 18.0111H11.26C11.0793 18.0111 10.9964 18.0864 10.9776 18.124C10.7657 18.5054 10.3081 19.3303 10.1725 19.5788C10.0369 19.8274 10.2478 19.899 10.3702 19.9037C11.0858 19.9178 12.5623 19.9461 12.7431 19.9461C12.9239 19.9461 13.0067 19.8519 13.0256 19.8048C13.2563 19.3623 13.7431 18.4291 13.8448 18.237C13.9465 18.045 13.8024 18.0063 13.7176 18.0111ZM15.6103 10.61H19.5086C19.5839 10.6006 19.7345 10.6241 19.7345 10.7936V12.3473C19.7345 12.3849 19.6978 12.4603 19.5509 12.4603H18.6046C18.5622 12.4555 18.4775 12.4687 18.4775 12.5591V17.9546C18.4775 18.0063 18.5086 18.1099 18.6329 18.1099H20.2006C20.2524 18.1005 20.356 18.1127 20.356 18.237V19.8048C20.356 19.8425 20.3249 19.9206 20.2006 19.9319C20.0763 19.9432 16.0434 19.9366 14.0425 19.9319C13.9766 19.9319 13.8645 19.898 13.9436 19.7625C14.0227 19.6269 14.551 18.6043 14.8052 18.1099H16.599C16.6272 18.1146 16.6837 18.0901 16.6837 17.9546V12.6721C16.6837 12.6015 16.647 12.4603 16.5001 12.4603H15.6103C15.5585 12.465 15.4549 12.4405 15.4549 12.3049V10.7089C15.469 10.6759 15.5199 10.61 15.6103 10.61ZM27.1356 11.3868V12.3473C27.1356 12.4151 27.1733 12.432 27.1921 12.432C27.3192 12.4414 27.7119 12.4603 28.2655 12.4603C28.8192 12.4603 29 11.9659 29 11.5846C29 11.0055 28.774 10.61 28.0396 10.61C27.3051 10.61 27.1309 11.1279 27.1356 11.3868ZM22.0792 10.61C22.1168 10.6147 22.2006 10.5959 22.2345 10.4829C22.2684 10.3699 22.2675 10.191 22.2628 10.1156C22.2581 10.0827 22.2741 10.0168 22.3758 10.0168H23.9577C23.9812 10.0262 24.0283 10.0676 24.0283 10.158V10.5676C24.0424 10.5817 24.0904 10.61 24.1695 10.61H25.017C25.582 10.7277 26.726 11.206 26.7825 12.1778C26.839 13.1495 26.8343 13.7032 26.8249 13.8585C26.8155 13.9056 26.8305 13.9998 26.9661 13.9998C26.9683 13.9998 26.9708 13.9998 26.9735 13.9998H26.9738C27.1849 13.9994 29 13.9958 29 15.7936V18.4348C28.9058 18.9338 28.4492 19.9319 27.3757 19.9319C26.2129 19.9319 25.8881 19.5607 25.721 19.3697C25.6953 19.3403 25.6733 19.3152 25.6526 19.2964C25.4972 19.1551 25.356 18.7596 25.3418 18.4348H26.9661C27.032 18.4489 27.1639 18.4461 27.1639 18.3218V16.5139C27.145 16.3067 27.0283 15.8924 26.7119 15.8924H24.1554C24.1083 15.8971 24.0142 15.9348 24.0142 16.0478V19.8896H22.2628V15.8924H20.356V13.9998H22.2628V12.4603H20.9633V10.61H22.0792ZM24.0283 12.432L24.0424 13.9998H25.6667V12.8981C25.6384 12.7145 25.4718 12.3473 25.0311 12.3473C24.5904 12.3473 24.1789 12.4038 24.0283 12.432Z" fill="black"/>
<path d="M1.23188 16.2597L1.51436 12.4885H3.37875C3.35992 13.077 3.29683 14.5789 3.19514 15.8783C3.06802 17.5026 2.29119 18.7879 2.16408 18.9432C2.06238 19.0675 1.98046 19.0233 1.95221 18.9856L1.06239 17.2483C1.01531 17.1354 0.949396 16.8868 1.06239 16.7964C1.17538 16.706 1.22246 16.4009 1.23188 16.2597Z" fill="black"/>
</svg>
