<svg width="30" height="30" viewBox="0 0 30 30" fill="none" xmlns="http://www.w3.org/2000/svg">
<path d="M18.7438 25.0328C18.9446 25.2118 19.2606 25.152 19.382 24.9119L28.7565 6.37026C29.245 5.40407 28.9808 4.22724 28.1261 3.5626C27.6047 3.15709 26.9321 2.99963 26.2849 3.13154L1.32825 8.21764C0.999359 8.28466 0.886289 8.69712 1.13501 8.92249L6.33975 13.6386C6.47259 13.759 6.66828 13.7789 6.82272 13.6879L8.36907 12.7766C8.54753 12.6715 8.57287 12.4234 8.41936 12.2843L6.25896 10.327C6.0102 10.1016 6.12329 9.68911 6.4522 9.6221L21.5792 6.54024C21.919 6.471 22.0952 6.93001 21.7964 7.10597L8.27351 15.0671C8.11722 15.1591 8.02127 15.327 8.02127 15.5083V26.5036C8.02127 26.8462 8.41685 27.0374 8.68532 26.8246L13.2566 23.2003C13.4059 23.0819 13.4126 22.8575 13.2704 22.7305L11.9197 21.5236C11.8082 21.424 11.6412 21.4191 11.5241 21.512L10.9193 21.9919C10.718 22.1516 10.4212 22.0082 10.4212 21.7512V18.2967C10.4212 18.0314 10.7348 17.8909 10.9328 18.0675L18.7438 25.0328ZM24.4394 8.33307C24.7037 8.17749 25.0078 8.46271 24.8694 8.73642L18.6466 21.0433C18.5252 21.2834 18.2093 21.3432 18.0085 21.1642L12.3168 16.0895C12.1096 15.9048 12.1424 15.5717 12.3816 15.4308L24.4394 8.33307Z" fill="black"/>
</svg>
