<svg width="30" height="30" viewBox="0 0 30 30" fill="none" xmlns="http://www.w3.org/2000/svg">
  <path d="M12.5 29C12.5 29 11.5 27 10 23C8.5 19 6 18 5 17C4 16 3 15 3 15C3 15 4 14 7 13C10 12 11 11 13 9C15 7 17 6 17 6C17 6 18 5 20 6C22 7 24 8 26 10C26 10 27 11 26 13C25 15 23 17 22 18C21 19 19 21 19 21C19 21 18 22 16 22C14 22 13 23 12.5 29Z" stroke="black" stroke-width="2" stroke-linecap="round" stroke-linejoin="round"/>
  <path d="M20 9L12 14" stroke="black" stroke-width="2" stroke-linecap="round" stroke-linejoin="round"/>
</svg>
