<svg width="30" height="30" viewBox="0 0 30 30" fill="none" xmlns="http://www.w3.org/2000/svg">
<path d="M15.7758 1.02333C17.3041 1 18.8207 1.01167 20.3374 1C20.4307 2.78498 21.0724 4.60495 22.379 5.86494C23.6857 7.15992 25.529 7.75492 27.3256 7.95325V12.6549C25.6457 12.5965 23.954 12.2465 22.4257 11.5232C21.7607 11.2199 21.1424 10.8349 20.5357 10.4382C20.524 13.8448 20.5474 17.2515 20.5124 20.6464C20.419 22.2797 19.8824 23.9014 18.9374 25.243C17.4091 27.483 14.7608 28.9413 12.0425 28.988C10.3742 29.0813 8.70586 28.6263 7.28254 27.7863C4.92591 26.398 3.26926 23.8547 3.02426 21.1247C3.00093 20.5414 2.98926 19.9581 3.0126 19.3864C3.22259 17.1698 4.31925 15.0465 6.02256 13.5998C7.9592 11.9199 10.6658 11.1149 13.1975 11.5932C13.2208 13.3198 13.1508 15.0465 13.1508 16.7731C11.9958 16.3998 10.6425 16.5048 9.62752 17.2048C8.89252 17.6831 8.33253 18.4181 8.04087 19.2464C7.79587 19.8414 7.86587 20.4948 7.87754 21.1247C8.15753 23.0381 10.0008 24.648 11.9608 24.473C13.2675 24.4614 14.5158 23.7031 15.1924 22.5947C15.4141 22.2097 15.6591 21.8131 15.6708 21.3581C15.7874 19.2698 15.7408 17.1931 15.7524 15.1048C15.7641 10.4032 15.7408 5.71327 15.7758 1.02333Z" fill="black"/>
</svg>
