<svg width="30" height="30" viewBox="0 0 30 30" fill="none" xmlns="http://www.w3.org/2000/svg">
<path fill-rule="evenodd" clip-rule="evenodd" d="M25.9392 5.60083C27.144 5.93143 28.0929 6.90554 28.4149 8.14258C29 10.3846 29 15.0625 29 15.0625C29 15.0625 29 19.7403 28.4149 21.9824C28.0929 23.2195 27.144 24.1936 25.9392 24.5243C23.7559 25.125 15 25.125 15 25.125C15 25.125 6.24411 25.125 4.06059 24.5243C2.8558 24.1936 1.90698 23.2195 1.58498 21.9824C1 19.7403 1 15.0625 1 15.0625C1 15.0625 1 10.3846 1.58498 8.14258C1.90698 6.90554 2.8558 5.93143 4.06059 5.60083C6.24411 5 15 5 15 5C15 5 23.7559 5 25.9392 5.60083ZM12.375 11.1244V19.8744L19.375 15.4996L12.375 11.1244Z" fill="black"/>
</svg>
